<svg xmlns="http://www.w3.org/2000/svg"  viewBox="0 0 100 100" width="200px" height="200px"><path d="M20.178,27.195C12.75,34.917,8.782,45.064,9.004,55.765c0.258,12.438,6.14,23.893,16.377,31.481	c5.731,4.248,12.565,6.867,19.665,7.555c12.568,1.218,24.482-3.203,33.061-12.122c5.105-5.308,8.643-11.894,10.23-19.048	l1.925-8.676c0.177-0.797-0.553-1.499-1.343-1.29l-1.251,0.331l1.665-5.404l9.064-6.88c0.802-0.609,0.802-1.815,0-2.424	l-9.072-6.884L20.178,27.195z" opacity=".35"/><path fill="#f2f2f2" d="M87.339,46.601l9.064-6.88c0.802-0.609,0.802-1.815,0-2.424l-9.072-6.884l-7.631-10.445	c-0.453-0.62-1.109-1.062-1.853-1.249l-3.287-0.825l-10.047-3.663L58.18,5.615c-0.585-0.796-1.775-0.796-2.36,0.001l-6.329,8.62	l-3.214,1.175l0.372-1.675c0.227-1.022-0.71-1.922-1.722-1.654l-8.102,2.144c-7.094,1.877-13.54,5.673-18.643,10.979	c-7.428,7.722-11.396,17.869-11.174,28.57c0.258,12.438,6.14,23.893,16.377,31.481c5.731,4.248,12.565,6.867,19.665,7.555	c12.568,1.218,24.482-3.203,33.061-12.122c5.105-5.308,8.643-11.894,10.23-19.048l1.925-8.676c0.177-0.797-0.553-1.499-1.343-1.29	l-1.251,0.331L87.339,46.601z"/><path fill="#ffe385" d="M48.044,52.014c-8.793-8.415-12.01-20.447-9.555-31.505c-5.763,1.525-11.192,4.596-15.621,9.201	c-12.865,13.376-12.423,34.622,0.986,47.455c13.41,12.833,34.71,12.392,47.575-0.984c4.429-4.605,7.281-10.143,8.569-15.95	C69.022,63.136,56.837,60.429,48.044,52.014z"/><polygon fill="#94cfff" points="57.02,31.009 59.273,23.778 65.497,21.509 59.273,19.239 57.003,12.009 54.733,19.239 48.509,21.514 54.733,23.778"/><path fill="#40396e" d="M57.02,32.509c-0.654,0-1.233-0.424-1.43-1.048l-2.064-6.525l-5.53-2.011 c-0.592-0.215-0.987-0.778-0.987-1.408c0-0.63,0.393-1.194,0.985-1.41l5.53-2.021l2.048-6.525c0.196-0.625,0.776-1.051,1.431-1.051 s1.235,0.425,1.431,1.051l2.048,6.524l5.529,2.016c0.592,0.216,0.986,0.779,0.986,1.409s-0.394,1.193-0.986,1.409l-5.527,2.015 l-2.032,6.522c-0.195,0.625-0.773,1.052-1.429,1.054C57.022,32.509,57.021,32.509,57.02,32.509z M52.888,21.511l2.358,0.857 c0.438,0.159,0.777,0.513,0.917,0.958L57.009,26l0.832-2.668c0.139-0.447,0.479-0.803,0.918-0.963l2.359-0.86l-2.359-0.86 c-0.438-0.16-0.778-0.515-0.917-0.96l-0.839-2.671l-0.838,2.671c-0.14,0.445-0.478,0.799-0.916,0.959L52.888,21.511z"/><polygon fill="#94cfff" points="79.026,51.509 82.074,41.615 90.497,38.509 82.074,35.403 79.003,25.509 75.932,35.403 67.509,38.517 75.932,41.615"/><path fill="#40396e" d="M79.026,53.009c-0.656,0-1.236-0.426-1.432-1.052l-2.874-9.189l-7.729-2.843 c-0.59-0.217-0.982-0.778-0.982-1.407c0-0.628,0.391-1.19,0.98-1.408l7.729-2.857l2.852-9.188c0.195-0.627,0.775-1.055,1.433-1.055 s1.238,0.428,1.433,1.055l2.852,9.188l7.729,2.85c0.589,0.217,0.981,0.779,0.981,1.407s-0.392,1.19-0.981,1.407l-7.728,2.85 l-2.83,9.185c-0.193,0.628-0.773,1.057-1.431,1.058C79.028,53.009,79.027,53.009,79.026,53.009z M71.845,38.513l4.604,1.694 c0.438,0.161,0.775,0.516,0.914,0.96l1.652,5.282l1.625-5.276c0.138-0.447,0.476-0.804,0.915-0.965l4.606-1.699l-4.606-1.698 c-0.438-0.161-0.775-0.517-0.914-0.962l-1.639-5.279l-1.639,5.279c-0.138,0.445-0.476,0.801-0.913,0.962L71.845,38.513z"/><g><path fill="#ffe385" d="M48.044,52.014c-8.793-8.415-12.01-20.447-9.555-31.505c-5.763,1.525-11.192,4.596-15.621,9.201 c-12.865,13.376-12.423,34.622,0.986,47.455c13.41,12.833,34.71,12.392,47.575-0.984c4.429-4.605,7.281-10.143,8.569-15.95 C69.022,63.136,56.837,60.429,48.044,52.014z"/><path fill="#40396e" d="M47.141,87.992c-8.755,0-17.522-3.234-24.324-9.744c-6.776-6.484-10.615-15.213-10.809-24.578 c-0.194-9.364,3.279-18.242,9.779-25c4.468-4.645,10.111-7.969,16.318-9.611c0.506-0.135,1.046,0.005,1.423,0.368 c0.377,0.363,0.539,0.896,0.425,1.407c-2.448,11.033,0.964,22.284,9.128,30.096v0c8.165,7.814,19.581,10.749,30.533,7.851 c0.507-0.132,1.046,0.006,1.423,0.368c0.377,0.363,0.539,0.896,0.425,1.407c-1.389,6.257-4.484,12.019-8.953,16.665 C65.619,84.386,56.386,87.992,47.141,87.992z M36.563,22.664c-4.765,1.655-9.09,4.42-12.615,8.086 c-5.943,6.179-9.119,14.297-8.941,22.858c0.178,8.562,3.688,16.543,9.884,22.473c12.792,12.242,33.183,11.821,45.457-0.94 c3.523-3.664,6.113-8.084,7.574-12.899c-11.201,2.141-22.598-1.187-30.914-9.144l0,0C38.689,45.139,34.882,33.917,36.563,22.664z"/></g></svg>